#N canvas 0 153 433 259 10;
#X obj 33 16 inlet;
#X obj 155 102 b;
#X obj 34 62 until, f 16;
#X obj 36 102 list, f 12;
#X obj 33 38 t b a;
#X obj 37 160 outlet;
#X obj 151 160 outlet;
#X obj 238 16 loadbang;
#X obj 238 51 float \$1;
#X obj 238 73 select 0;
#X msg 238 95 1;
#X obj 38 134 list split \$1;
#X text 42 194 split a list into smaller pieces \, return those on
left outlet. bangs on right outlet when finished.;
#X connect 0 0 4 0;
#X connect 1 0 2 1;
#X connect 1 0 6 0;
#X connect 2 0 3 0;
#X connect 3 0 11 0;
#X connect 4 0 2 0;
#X connect 4 1 3 1;
#X connect 7 0 8 0;
#X connect 8 0 9 0;
#X connect 9 0 10 0;
#X connect 10 0 11 1;
#X connect 11 0 5 0;
#X connect 11 1 3 1;
#X connect 11 2 1 0;
