#N canvas 1109 142 736 868 12;
#X obj 134 420 oscparse;
#X obj 135 370 netreceive -u -b;
#X msg 142 174 listen 0;
#X text 260 365 UDP packets \, binary output, f 13;
#X obj 261 98 loadbang;
#X obj 80 678 for-each;
#X obj 80 727 print s;
#X obj 141 726 print f;
#X obj 80 702 route symbol float;
#X obj 355 610 list trim;
#X obj 355 751 s, f 5;
#X obj 355 649 list split 1;
#X obj 355 697 list, f 7;
#X obj 355 673 t b a;
#X obj 355 721 list trim;
#X text 58 751 testing proper conversion;
#X text 449 648 split address and payload;
#X obj 134 529 oscparse-numbers;
#X obj 134 445 t a a;
#X obj 166 468 print parsed-output;
#X obj 134 553 t a a a;
#X obj 31 21 inlet;
#X text 147 18 start up an OSC server at port \$1 (default 5000). uses
the first field of incoming messages to send their content as pd messages
\, e.g.: an OSC message "/test" "hello" "123" would result in the list
("hello" 123) to be sent via a [s test].;
#X obj 51 98 r \$0-ctl;
#X obj 31 45 s \$0-ctl;
#X obj 51 122 route start stop, f 27;
#X obj 51 146 b;
#X obj 54 286 f \$1;
#X obj 142 151 b;
#X obj 261 122 t b b;
#X msg 54 314 listen \$1;
#X obj 294 150 f \$1;
#X obj 294 174 == 0;
#X obj 294 198 select 1;
#X msg 294 224 5000, f 5;
#X obj 434 610 print osc-message received;
#X obj 147 347 print netreceive;
#X obj 347 226 b;
#X obj 81 654 t a;
#X connect 0 0 18 0;
#X connect 1 0 0 0;
#X connect 2 0 1 0;
#X connect 4 0 29 0;
#X connect 5 0 8 0;
#X connect 8 0 6 0;
#X connect 8 1 7 0;
#X connect 9 0 35 0;
#X connect 11 0 13 0;
#X connect 11 1 12 1;
#X connect 12 0 14 0;
#X connect 13 0 12 0;
#X connect 13 1 10 1;
#X connect 14 0 10 0;
#X connect 17 0 20 0;
#X connect 18 0 17 0;
#X connect 20 0 11 0;
#X connect 20 1 38 0;
#X connect 20 2 9 0;
#X connect 21 0 24 0;
#X connect 23 0 25 0;
#X connect 25 0 26 0;
#X connect 25 1 28 0;
#X connect 26 0 27 0;
#X connect 27 0 30 0;
#X connect 28 0 2 0;
#X connect 29 1 31 0;
#X connect 30 0 1 0;
#X connect 31 0 32 0;
#X connect 32 0 33 0;
#X connect 33 0 34 0;
#X connect 33 1 37 0;
#X connect 34 0 27 0;
#X connect 37 0 27 0;
