#N canvas 972 167 629 556 10;
#X obj 31 140 osc-to-pd 5000;
#X obj 31 165 r reload;
#X msg 58 272 \; pd-hello-world.pd menuclose \; pd open hello-world.pd
/home/philipp/clojure/clj-puredata/resources/ \;;
#X msg 58 246 set \, addsemi \, add pd-\$1 menuclose \, add pd open
\$1 \$2;
#X obj 31 187 t b a;
#X obj 58 216 list;
#X text 34 11 reloads PD patch when triggered by OSC message.;
#X text 36 31 usage: send OSC-message with fields "/reload" "patch-name.pd"
"path/to/patch/" to port 5000, f 92;
#X text 38 55 note: leading slash "/" on first field \, second field
ending in ".pd" \, trailing slash "/" on third field., f 40;
#X connect 1 0 4 0;
#X connect 3 0 2 0;
#X connect 4 0 2 0;
#X connect 4 1 5 0;
#X connect 5 0 3 0;
