#N canvas 0 87 614 460 10;
#X obj 85 81 for-each;
#X msg 159 210 0;
#X obj 127 234 float;
#X obj 32 205 ||, f 7;
#X obj 32 181 < 48;
#X obj 78 181 > 57;
#X obj 96 234 +;
#X obj 138 299 float;
#X obj 32 157 t f f b, f 14;
#X obj 138 323 == 0;
#X obj 148 349 print numberp;
#X obj 316 255 swap 10;
#X obj 316 212 float;
#X obj 85 105 t f f;
#X obj 284 180 - 48;
#X obj 284 316 *, f 5;
#X obj 316 281 pow, f 7;
#X obj 284 157 t f b;
#X obj 348 157 list length;
#X obj 262 388 print numbaz;
#X obj 382 212 - 1;
#X obj 348 180 - 1;
#X obj 85 57 t a b a b, f 32;
#X obj 284 341 +, f 8;
#X msg 336 315 0;
#X obj 353 342 float;
#X obj 252 364 float;
#X obj 138 105 t b b;
#X obj 85 6 inlet;
#X obj 85 28 list fromsymbol;
#X obj 252 416 outlet;
#X obj 138 375 outlet;
#X text 209 417 number;
#X text 70 376 is-number?;
#X text 306 14 (list-of char-float) -> boolean \, float: return 1 if
input consists exclusively of numbers. also returns number \, assuming
base 10, f 40;
#X connect 0 0 13 0;
#X connect 0 1 27 0;
#X connect 1 0 2 1;
#X connect 2 0 6 1;
#X connect 3 0 6 0;
#X connect 4 0 3 0;
#X connect 5 0 3 1;
#X connect 6 0 2 1;
#X connect 6 0 7 1;
#X connect 7 0 9 0;
#X connect 8 0 4 0;
#X connect 8 1 5 0;
#X connect 8 2 2 0;
#X connect 9 0 31 0;
#X connect 11 0 16 0;
#X connect 11 1 16 1;
#X connect 12 0 11 0;
#X connect 12 0 20 0;
#X connect 13 0 8 0;
#X connect 13 1 17 0;
#X connect 14 0 15 0;
#X connect 15 0 23 0;
#X connect 16 0 15 1;
#X connect 17 0 14 0;
#X connect 17 1 12 0;
#X connect 18 0 21 0;
#X connect 20 0 12 1;
#X connect 21 0 12 1;
#X connect 22 0 0 0;
#X connect 22 1 1 0;
#X connect 22 2 18 0;
#X connect 22 3 24 0;
#X connect 23 0 25 0;
#X connect 23 0 26 1;
#X connect 24 0 23 1;
#X connect 25 0 23 1;
#X connect 26 0 30 0;
#X connect 27 0 7 0;
#X connect 27 1 26 0;
#X connect 28 0 29 0;
#X connect 29 0 22 0;
